HIERARCHY
ROOT Hips
{
	OFFSET 0.000000 0.000000 0.000000
	CHANNELS 6 Xposition Yposition Zposition Zrotation Yrotation Xrotation 
	JOINT LHipJoint
	{
		OFFSET 0.000000 0.000000 0.000000
		CHANNELS 3 Zrotation Yrotation Xrotation
		JOINT LeftUpLeg
		{
			OFFSET 1.363060 -1.794630 0.839290
			CHANNELS 3 Zrotation Yrotation Xrotation
			JOINT LeftLeg
			{
				OFFSET 2.448110 -6.726130 0.000000
				CHANNELS 3 Zrotation Yrotation Xrotation
				JOINT LeftFoot
				{
					OFFSET 2.562200 -7.039590 0.000000
					CHANNELS 3 Zrotation Yrotation Xrotation
					JOINT LeftToeBase
					{
						OFFSET 0.157640 -0.433110 2.322550
						CHANNELS 3 Zrotation Yrotation Xrotation
						End Site
						{
							OFFSET 0.000000 0.000000 0.000000
						}
					}
				}
			}
		}
	}
	JOINT RHipJoint
	{
		OFFSET 0.000000 0.000000 0.000000
		CHANNELS 3 Zrotation Yrotation Xrotation
		JOINT RightUpLeg
		{
			OFFSET -1.305520 -1.794630 0.839290
			CHANNELS 3 Zrotation Yrotation Xrotation
			JOINT RightLeg
			{
				OFFSET -2.542530 -6.985550 0.000000
				CHANNELS 3 Zrotation Yrotation Xrotation
				JOINT RightFoot
				{
					OFFSET -2.568260 -7.056230 0.000000
					CHANNELS 3 Zrotation Yrotation Xrotation
					JOINT RightToeBase
					{
						OFFSET -0.164730 -0.452590 2.363150
						CHANNELS 3 Zrotation Yrotation Xrotation
						End Site
						{
							OFFSET 0.000000 0.000000 0.000000
						}
					}
				}
			}
		}
	}
	JOINT LowerBack
	{
		OFFSET 0.000000 0.000000 0.000000
		CHANNELS 3 Zrotation Yrotation Xrotation
		JOINT Spine
		{
			OFFSET 0.028270 2.035590 -0.193380
			CHANNELS 3 Zrotation Yrotation Xrotation
			JOINT Spine1
			{
				OFFSET 0.056720 2.048850 -0.042750
				CHANNELS 3 Zrotation Yrotation Xrotation
				JOINT Neck
				{
					OFFSET 0.000000 0.000000 0.000000
					CHANNELS 3 Zrotation Yrotation Xrotation
					JOINT Neck1
					{
						OFFSET -0.054170 1.746240 0.172020
						CHANNELS 3 Zrotation Yrotation Xrotation
						JOINT Head
						{
							OFFSET 0.104070 1.761360 -0.123970
							CHANNELS 3 Zrotation Yrotation Xrotation
							End Site
							{
								OFFSET 0.000000 0.000000 0.000000
							}
						}
					}
				}
				JOINT LeftShoulder
				{
					OFFSET 0.000000 0.000000 0.000000
					CHANNELS 3 Zrotation Yrotation Xrotation
					JOINT LeftArm
					{
						OFFSET 3.362410 1.200890 -0.311210
						CHANNELS 3 Zrotation Yrotation Xrotation
						JOINT LeftForeArm
						{
							OFFSET 4.983000 -0.000000 -0.000000
							CHANNELS 3 Zrotation Yrotation Xrotation
							JOINT LeftHand
							{
								OFFSET 3.483560 -0.000000 -0.000000
								CHANNELS 3 Zrotation Yrotation Xrotation
								JOINT LeftFingerBase
								{
									OFFSET 0.000000 0.000000 0.000000
									CHANNELS 3 Zrotation Yrotation Xrotation
									JOINT LeftHandIndex1
									{
										OFFSET 0.715260 -0.000000 -0.000000
										CHANNELS 3 Zrotation Yrotation Xrotation
										End Site
										{
											OFFSET 0.000000 0.000000 0.000000
										}
									}
								}
								JOINT LThumb
								{
									OFFSET 0.000000 0.000000 0.000000
									CHANNELS 3 Zrotation Yrotation Xrotation
									End Site
									{
										OFFSET 0.000000 0.000000 0.000000
									}
								}
							}
						}
					}
				}
				JOINT RightShoulder
				{
					OFFSET 0.000000 0.000000 0.000000
					CHANNELS 3 Zrotation Yrotation Xrotation
					JOINT RightArm
					{
						OFFSET -3.136600 1.374050 -0.404650
						CHANNELS 3 Zrotation Yrotation Xrotation
						JOINT RightForeArm
						{
							OFFSET -5.241900 -0.000000 -0.000000
							CHANNELS 3 Zrotation Yrotation Xrotation
							JOINT RightHand
							{
								OFFSET -3.444170 -0.000000 -0.000000
								CHANNELS 3 Zrotation Yrotation Xrotation
								JOINT RightFingerBase
								{
									OFFSET 0.000000 0.000000 0.000000
									CHANNELS 3 Zrotation Yrotation Xrotation
									JOINT RightHandIndex1
									{
										OFFSET -0.622530 -0.000000 -0.000000
										CHANNELS 3 Zrotation Yrotation Xrotation
										End Site
										{
											OFFSET 0.000000 0.000000 0.000000
										}
									}
								}
								JOINT RThumb
								{
									OFFSET 0.000000 0.000000 0.000000
									CHANNELS 3 Zrotation Yrotation Xrotation
									End Site
									{
										OFFSET 0.000000 0.000000 0.000000
									}
								}
							}
						}
					}
				}
			}
		}
	}
}
MOTION
Frames: 7
Frame Time: 0.008333
14.032958 14.850120 -33.222673 -56.799190 -70.273502 68.161557 14.552299 -2.529617 -11.095486 -22.752374 -12.707582 -41.215379 -3.186284 20.774174 61.027962 8.946429 -8.830863 -10.632984 -3.692804 8.913529 21.616228 8.691501 36.676688 -23.100726 -19.514332 -22.999577 12.045171 4.467742 -20.563997 19.683128 8.090200 8.333502 -7.919147 1.802647 -5.754563 -24.891705 -15.180927 -0.562320 29.769761 4.087558 -5.953976 -6.160947 7.819474 5.218451 11.092879 -6.438982 2.464566 -17.618600 5.011888 3.113390 11.003009 -0.953682 12.305897 -8.170958 18.469460 5.600944 6.005100 -95.094814 -41.476443 35.346424 52.884801 -64.156944 6.359377 -31.256589 -48.781150 22.735981 0.000001 -0.000001 -0.000001 0.000000 0.000000 -0.000000 0.000000 0.000000 0.000000 -19.914306 -3.133100 4.025643 72.377246 14.162014 1.319646 8.935901 43.506357 20.247731 -18.501946 26.741685 -0.879886 0.000002 0.000001 -0.000002 0.000000 -0.000000 -0.000000 0.000000 -0.000000 0.000000 
14.048258 14.864234 -33.399850 -49.431200 -68.338782 60.839362 14.970970 -3.581878 -12.380044 -22.399147 -11.859350 -40.932072 -3.551057 21.123794 61.670041 6.545561 -11.120939 -8.253944 -3.838545 9.882569 23.347070 9.038453 36.829678 -22.574111 -20.835767 -26.322725 11.547373 4.936463 -19.897742 21.445701 5.830545 6.842978 -9.190966 2.410324 -6.578219 -26.374389 -13.743677 -1.532940 30.789896 4.089456 -6.472704 -6.200376 7.596850 5.286881 10.255479 -6.546800 2.546366 -16.735756 4.747390 3.148403 11.180440 -1.720626 12.206854 -8.662079 18.584498 5.555883 6.369619 -95.764194 -41.461385 36.497756 56.716481 -64.465618 4.069951 -31.383682 -49.124994 22.973210 0.000001 -0.000001 -0.000001 0.000000 0.000000 0.000000 -0.000000 0.000000 -0.000000 -20.391274 -2.071544 3.871675 72.845917 12.668915 1.790184 9.331158 43.003431 22.613469 -17.922874 30.338418 -0.791230 0.000002 0.000001 -0.000002 -0.000000 -0.000000 -0.000000 0.000000 -0.000000 -0.000000 
14.056997 14.874760 -33.557658 -41.854487 -65.841544 52.606029 15.086579 -5.230878 -13.793099 -21.985475 -11.276286 -39.685363 -4.109477 21.577849 62.073032 2.566560 -13.024448 -5.018355 -3.771557 10.746773 22.441534 8.792232 36.449285 -21.988109 -21.825323 -30.608016 11.772607 4.631656 -19.945060 22.430340 5.753189 7.215709 -8.781329 0.428147 -4.629060 -24.743906 -12.191551 -2.600146 32.220712 3.983397 -6.453969 -6.187408 8.020924 5.211027 10.180295 -7.458075 2.632591 -16.402940 4.579127 3.342852 11.607689 -0.703035 11.851024 -10.120038 17.890942 5.011553 6.345128 -96.406873 -41.653480 39.410446 60.262284 -63.289323 6.213877 -16.862994 -50.751147 16.139214 0.000001 -0.000001 -0.000001 0.000000 0.000000 0.000000 0.000000 0.000000 0.000000 -21.368603 -2.552282 3.941904 73.482131 11.901414 2.251506 9.866755 42.254896 23.440007 -16.911478 31.620240 -0.545640 0.000002 0.000001 -0.000002 0.000000 0.000000 0.000000 -0.000000 0.000000 -0.000000 
14.066126 14.886877 -33.689790 -34.680359 -63.775884 44.781277 13.929357 -7.005821 -14.988450 -21.528045 -10.315786 -38.644190 -4.588869 21.550974 62.700742 -0.369631 -14.494859 -1.704651 -3.750257 13.048419 21.800423 8.505709 34.572003 -20.951154 -22.760815 -34.599083 10.974075 3.599066 -19.341307 24.098636 6.248155 8.343027 -8.105628 -0.211675 -3.792424 -23.481294 -11.456561 -3.834185 33.628795 3.840494 -6.348381 -6.189216 7.365244 5.146986 9.966798 -7.367317 2.792204 -16.012958 4.404807 3.488799 12.071673 -0.409775 12.047628 -11.841671 17.896808 4.707833 6.635202 -97.048661 -41.984579 41.366832 62.522764 -62.933408 6.171180 -7.764263 -50.510247 11.352641 0.000001 -0.000001 -0.000001 -0.000000 0.000000 -0.000000 -0.000000 0.000000 0.000000 -21.187357 -2.687499 3.957508 73.818845 11.126636 2.811120 10.265581 41.567425 21.224903 -15.929300 28.285135 -0.212932 0.000002 0.000001 -0.000002 -0.000000 -0.000000 0.000000 -0.000000 0.000000 0.000000 
14.072748 14.919580 -33.818018 -28.410190 -62.277132 38.283658 12.143845 -8.649976 -15.891458 -20.778455 -8.960523 -38.211852 -5.031179 21.486729 63.179477 -4.418156 -15.453670 2.230435 -3.706949 15.206448 19.471860 8.273093 32.674124 -19.809127 -23.459146 -36.306957 10.002095 3.429126 -18.396281 25.523706 5.629911 7.679104 -8.271495 -5.792634 1.816739 -22.919477 -11.620141 -4.841333 34.589923 3.758714 -6.389635 -6.239475 6.975811 4.788930 9.672380 -7.456030 2.982765 -15.510531 4.229436 3.685459 12.561266 0.098686 12.426426 -13.232321 17.350157 4.987828 7.323906 -97.441784 -42.311183 41.770436 63.571558 -63.824651 3.278782 -10.297726 -49.777787 12.457775 0.000001 -0.000001 -0.000001 0.000000 -0.000000 0.000000 -0.000000 0.000000 0.000000 -21.051038 -1.928565 3.748038 73.964157 10.291805 3.210448 10.660497 40.879761 21.116816 -15.056792 27.834900 -0.003623 0.000002 0.000001 -0.000002 -0.000000 0.000000 -0.000000 -0.000000 0.000000 -0.000000 
14.083183 14.932523 -33.954655 -23.850319 -61.297186 33.548504 10.687984 -9.712636 -16.460708 -20.069030 -7.447955 -38.269880 -5.275462 21.635699 63.639287 -8.241989 -15.640740 6.129308 -3.563545 14.090327 16.581211 8.409710 31.114806 -19.159365 -24.499014 -36.710818 9.254946 2.873242 -18.522345 27.233055 4.408935 7.583678 -8.358523 -5.662329 1.788137 -22.383890 -12.288778 -5.492182 35.405747 3.623549 -5.958557 -6.213739 6.885453 4.411386 10.600937 -7.793917 2.853936 -16.265667 4.099557 3.732695 12.718020 0.540128 12.434815 -12.875850 16.685321 6.194822 7.770310 -98.053931 -43.725574 42.020685 62.506429 -64.349105 7.522571 -4.410678 -51.406991 9.840022 0.000001 -0.000001 -0.000001 0.000000 -0.000000 -0.000000 -0.000000 -0.000000 -0.000000 -21.309829 -2.008166 3.599747 74.315333 11.215975 3.484763 11.165240 40.124061 21.104953 -13.961846 27.732391 0.293016 0.000002 0.000001 -0.000002 0.000000 -0.000000 -0.000000 -0.000000 -0.000000 -0.000000 
14.094024 14.912598 -34.092192 -21.084519 -60.460117 30.492023 9.997546 -10.277613 -16.831485 -19.629339 -5.838713 -38.692029 -5.869522 21.535955 64.300756 -9.557055 -15.198980 8.939371 -3.295236 12.052191 13.813617 8.364564 30.356006 -19.092355 -25.198401 -35.594413 9.381777 3.315623 -19.178737 28.861364 3.369855 5.990115 -9.172641 -3.499372 -1.572262 -28.865290 -12.935850 -6.231870 36.165665 3.464097 -5.410559 -6.102550 6.271358 4.384183 11.647651 -7.598645 2.700501 -17.183739 3.998197 3.690235 12.527304 0.068043 12.490341 -11.498726 16.770554 7.858852 8.206771 -98.698026 -45.322848 41.799180 59.536269 -64.159065 13.890633 3.273952 -53.107095 6.302237 0.000001 -0.000001 -0.000001 0.000000 -0.000000 0.000000 0.000000 -0.000000 -0.000000 -21.470674 -1.858682 3.444216 74.942295 12.754970 3.620383 11.731633 39.311554 22.355664 -14.254753 30.059158 0.253040 0.000002 0.000001 -0.000002 0.000000 0.000000 0.000000 0.000000 0.000000 0.000000 
